<svg width="20" height="19" viewBox="0 0 20 19" fill="none" xmlns="http://www.w3.org/2000/svg">
<path d="M18.7805 0H1.46341C0.771219 0 0 0.561059 0 1.36601V13.2876C0 14.0925 0.771219 14.6536 1.46341 14.6536H3.90244V18.1307C3.90244 18.4824 4.11049 18.7991 4.42951 18.9334C4.53512 18.9784 4.6461 19 4.75585 19C4.97805 19 5.19634 18.9118 5.35976 18.7454L9.37805 14.6536H18.7805C19.3678 14.6536 20 14.2262 20 13.2876V1.36601C20 0.427438 19.3678 0 18.7805 0ZM18.2922 12.915H9.02439C8.79805 12.915 8.58098 13.0067 8.42073 13.1696L5.60976 16.032V13.7843C5.60976 13.304 5.22756 12.915 4.7561 12.915H1.70732V1.73856H18.2927L18.2922 12.915Z" fill="white"/>
</svg>
