<svg width="19" height="18" viewBox="0 0 19 18" fill="none" xmlns="http://www.w3.org/2000/svg">
<path d="M5.57116 4.99973e-07C2.46229 -0.00044152 0.000315077 2.75936 0 6.04519C0 8.76829 1.29405 11.16 3.03269 13.1256C4.77135 15.0912 6.97653 16.675 9.00769 17.866C9.15738 17.9538 9.32717 18 9.5 18C9.67283 18 9.84262 17.9538 9.99231 17.866C12.0234 16.675 14.2287 15.0912 15.9673 13.1256C17.7059 11.16 19 8.76829 19 6.04519C18.9997 2.75937 16.5377 -0.00044152 13.4288 4.99973e-07C11.8657 4.99973e-07 10.5312 0.860187 9.5 2.05087C8.46867 0.861188 7.13421 0.00266562 5.57308 4.99973e-07C5.57242 -1.66658e-07 5.57177 -1.66658e-07 5.57111 4.99973e-07H5.57116ZM5.56919 2.00009C6.80689 2.00219 7.97189 2.71318 8.63842 3.94158C8.72359 4.09786 8.84842 4.22813 8.99992 4.31883C9.15143 4.40954 9.32409 4.45738 9.49996 4.45738C9.67583 4.45738 9.84849 4.40954 10 4.31883C10.1515 4.22813 10.2763 4.09786 10.3615 3.94158C11.0281 2.71283 12.1931 2.00009 13.4288 2.00009C15.3844 1.99981 17.0306 3.7568 17.0308 6.04519C17.0308 8.12284 16.0359 10.0553 14.5019 11.7896C13.0988 13.3759 11.2628 14.7229 9.5 15.8034C7.73709 14.7228 5.90119 13.3759 4.49808 11.7896C2.96409 10.0553 1.96923 8.12284 1.96923 6.04519C1.96945 3.75756 3.61452 2.00097 5.56923 2.00009H5.56919Z" fill="white"/>
</svg>
