<svg width="228" height="50" viewBox="0 0 228 50" fill="none" xmlns="http://www.w3.org/2000/svg">
<rect x="8" y="25" width="28" height="5" fill="#12BF77"/>
<rect x="8" y="15" width="28" height="5" fill="#12BF77"/>
<g filter="url(#filter0_d_229_62)">
<path d="M59.992 22H56.584V5.992H59.992V22ZM78.6979 22H75.4099L67.7779 11.56V22H64.3699V5.992H67.8739L75.2899 16.048V5.992H78.6979V22ZM90.1823 22H86.7503V8.992H82.0703V5.992H94.8383V8.992H90.1823V22ZM112.623 22H109.191V15.28H101.631V22H98.2231V5.992H101.631V12.28H109.191V5.992H112.623V22ZM128.306 22H116.978V5.992H128.306V8.992H120.386V12.376H128.138V15.376H120.386V19H128.306V22ZM137.858 22.288C135.01 22.288 132.754 21.44 131.09 19.744L132.938 17.152C134.314 18.592 136.01 19.312 138.026 19.312C138.906 19.312 139.586 19.144 140.066 18.808C140.562 18.456 140.81 18.032 140.81 17.536C140.81 17.104 140.578 16.744 140.114 16.456C139.666 16.168 139.098 15.96 138.41 15.832C137.738 15.704 137.002 15.52 136.202 15.28C135.402 15.04 134.658 14.768 133.97 14.464C133.298 14.16 132.73 13.68 132.266 13.024C131.818 12.368 131.594 11.568 131.594 10.624C131.594 9.248 132.146 8.096 133.25 7.168C134.354 6.224 135.826 5.752 137.666 5.752C140.21 5.752 142.29 6.496 143.906 7.984L142.01 10.48C140.746 9.312 139.194 8.728 137.354 8.728C136.634 8.728 136.074 8.872 135.674 9.16C135.274 9.448 135.074 9.84 135.074 10.336C135.074 10.72 135.298 11.048 135.746 11.32C136.21 11.576 136.778 11.768 137.45 11.896C138.138 12.024 138.874 12.216 139.658 12.472C140.458 12.712 141.194 12.992 141.866 13.312C142.554 13.616 143.122 14.104 143.57 14.776C144.034 15.432 144.266 16.224 144.266 17.152C144.266 18.688 143.714 19.928 142.61 20.872C141.522 21.816 139.938 22.288 137.858 22.288ZM154.584 22H151.152V8.992H146.472V5.992H159.24V8.992H154.584V22ZM175.225 20.488C174.009 21.688 172.217 22.288 169.849 22.288C167.481 22.288 165.681 21.688 164.449 20.488C163.233 19.272 162.625 17.648 162.625 15.616V5.992H166.081V15.496C166.081 16.648 166.409 17.568 167.065 18.256C167.721 18.928 168.649 19.264 169.849 19.264C171.049 19.264 171.969 18.928 172.609 18.256C173.265 17.568 173.593 16.648 173.593 15.496V5.992H177.073V15.592C177.073 17.656 176.457 19.288 175.225 20.488ZM187.738 22H181.426V5.992H187.738C190.25 5.992 192.29 6.728 193.858 8.2C195.442 9.672 196.234 11.608 196.234 14.008C196.234 16.408 195.45 18.344 193.882 19.816C192.314 21.272 190.266 22 187.738 22ZM187.738 19C189.274 19 190.49 18.52 191.386 17.56C192.298 16.6 192.754 15.416 192.754 14.008C192.754 12.536 192.314 11.336 191.434 10.408C190.554 9.464 189.322 8.992 187.738 8.992H184.834V19H187.738ZM203.261 22H199.853V5.992H203.261V22ZM215.223 22.288C212.807 22.288 210.807 21.512 209.223 19.96C207.655 18.392 206.871 16.408 206.871 14.008C206.871 11.608 207.655 9.632 209.223 8.08C210.807 6.512 212.807 5.728 215.223 5.728C217.655 5.728 219.655 6.504 221.223 8.056C222.807 9.608 223.599 11.592 223.599 14.008C223.599 16.424 222.807 18.408 221.223 19.96C219.655 21.512 217.655 22.288 215.223 22.288ZM211.695 17.776C212.591 18.768 213.767 19.264 215.223 19.264C216.679 19.264 217.855 18.768 218.751 17.776C219.647 16.784 220.095 15.528 220.095 14.008C220.095 12.488 219.647 11.232 218.751 10.24C217.855 9.248 216.679 8.752 215.223 8.752C213.767 8.752 212.591 9.248 211.695 10.24C210.815 11.232 210.375 12.488 210.375 14.008C210.375 15.528 210.815 16.784 211.695 17.776Z" fill="white"/>
</g>
<g filter="url(#filter1_d_229_62)">
<circle cx="21.5" cy="22.5" r="15" stroke="#12BF77" stroke-width="5" shape-rendering="crispEdges"/>
</g>
<g filter="url(#filter2_d_229_62)">
<path d="M55.378 40.89C55.9473 40.4233 56.232 39.7747 56.232 38.944V33.078H57.8V39.028C57.8 39.728 57.6787 40.302 57.436 40.75C57.2027 41.2073 56.82 41.576 56.288 41.856L55.378 40.89ZM56.134 30.964C56.134 30.7307 56.2273 30.5347 56.414 30.376C56.6007 30.208 56.8107 30.124 57.044 30.124C57.268 30.124 57.4687 30.208 57.646 30.376C57.8327 30.5347 57.926 30.7307 57.926 30.964C57.926 31.1973 57.8327 31.3933 57.646 31.552C57.4687 31.7107 57.268 31.79 57.044 31.79C56.8107 31.79 56.6007 31.7107 56.414 31.552C56.2273 31.3933 56.134 31.1973 56.134 30.964ZM65.6178 33.078V39H64.2038L64.1058 37.936C63.9005 38.3373 63.5971 38.6593 63.1958 38.902C62.7945 39.1353 62.3371 39.252 61.8238 39.252C61.2825 39.252 60.8298 39.0887 60.4658 38.762C60.1111 38.426 59.9291 37.9967 59.9198 37.474V33.078H61.4878V36.914C61.5158 37.5673 61.8378 37.8987 62.4538 37.908C62.9111 37.908 63.2891 37.698 63.5878 37.278C63.8958 36.858 64.0498 36.3307 64.0498 35.696V33.078H65.6178ZM69.5591 39.126C69.1018 39.126 68.6678 39.0467 68.2571 38.888C67.8558 38.72 67.5245 38.4867 67.2631 38.188L67.9211 37.306C68.4158 37.7913 68.9198 38.034 69.4331 38.034C69.7131 38.034 69.9418 37.9827 70.1191 37.88C70.3058 37.768 70.3991 37.6047 70.3991 37.39C70.3991 37.166 70.3058 36.998 70.1191 36.886C69.9325 36.774 69.7225 36.6853 69.4891 36.62C69.2651 36.5453 69.1205 36.4987 69.0551 36.48C68.5418 36.3213 68.1591 36.0927 67.9071 35.794C67.6551 35.486 67.5291 35.1267 67.5291 34.716C67.5291 34.3893 67.6085 34.086 67.7671 33.806C67.9351 33.5167 68.1825 33.2833 68.5091 33.106C68.8451 32.9287 69.2511 32.84 69.7271 32.84C70.1751 32.84 70.5625 32.8913 70.8891 32.994C71.2251 33.0967 71.5378 33.26 71.8271 33.484L71.2251 34.422C71.0571 34.2633 70.8518 34.1373 70.6091 34.044C70.3758 33.9507 70.1611 33.904 69.9651 33.904C69.7225 33.904 69.5218 33.96 69.3631 34.072C69.2045 34.184 69.1251 34.3287 69.1251 34.506C69.1158 34.7207 69.1951 34.884 69.3631 34.996C69.5311 35.0987 69.8018 35.2107 70.1751 35.332C70.3338 35.3787 70.4365 35.4113 70.4831 35.43C70.9498 35.5793 71.3138 35.7893 71.5751 36.06C71.8365 36.3213 71.9671 36.6667 71.9671 37.096C71.9671 37.6747 71.7571 38.16 71.3371 38.552C70.9265 38.9347 70.3338 39.126 69.5591 39.126ZM75.843 30.474V33.078H77.383V34.31H75.843V39H74.275V34.31H73.253V33.078H74.275V30.474H75.843ZM89.6101 33.078V39H88.0421V38.146C87.8274 38.398 87.5381 38.6313 87.1741 38.846C86.8101 39.0513 86.3854 39.154 85.9001 39.154C85.3307 39.154 84.8221 39.0373 84.3741 38.804C83.9261 38.5613 83.5714 38.2067 83.3101 37.74C83.0487 37.2733 82.9181 36.7087 82.9181 36.046C82.9181 35.402 83.0534 34.8373 83.3241 34.352C83.5947 33.8573 83.9541 33.4793 84.4021 33.218C84.8594 32.9473 85.3587 32.812 85.9001 32.812C86.8614 32.812 87.5801 33.1667 88.0561 33.876L88.1681 33.078H89.6101ZM86.3341 37.866C86.7634 37.866 87.1227 37.7587 87.4121 37.544C87.7107 37.32 87.9207 37.0073 88.0421 36.606V35.318C87.9301 34.954 87.7107 34.66 87.3841 34.436C87.0667 34.212 86.6981 34.1 86.2781 34.1C85.7834 34.1 85.3634 34.2773 85.0181 34.632C84.6727 34.9773 84.5001 35.4207 84.5001 35.962C84.5001 36.3167 84.5841 36.6387 84.7521 36.928C84.9201 37.2173 85.1441 37.446 85.4241 37.614C85.7041 37.782 86.0074 37.866 86.3341 37.866ZM95.7233 32.812C96.2459 32.812 96.7266 32.938 97.1653 33.19C97.6039 33.442 97.9493 33.806 98.2013 34.282C98.4626 34.7487 98.5933 35.2993 98.5933 35.934C98.5933 36.5873 98.4533 37.1567 98.1733 37.642C97.8933 38.1273 97.5153 38.5007 97.0393 38.762C96.5726 39.0233 96.0639 39.154 95.5133 39.154C95.0466 39.154 94.6313 39.07 94.2673 38.902C93.9033 38.734 93.5953 38.5053 93.3433 38.216V39H91.7753V28.08H93.3433V33.708C93.5953 33.4373 93.9266 33.2227 94.3373 33.064C94.7573 32.896 95.2193 32.812 95.7233 32.812ZM95.1773 37.824C95.6906 37.824 96.1199 37.642 96.4653 37.278C96.8199 36.914 96.9973 36.4613 96.9973 35.92C96.9973 35.5747 96.9133 35.2573 96.7453 34.968C96.5866 34.6787 96.3673 34.4547 96.0873 34.296C95.8166 34.128 95.5133 34.044 95.1773 34.044C94.7386 34.044 94.3513 34.156 94.0153 34.38C93.6886 34.604 93.4646 34.9027 93.3433 35.276V36.592C93.4833 36.9747 93.7119 37.278 94.0293 37.502C94.3466 37.7167 94.7293 37.824 95.1773 37.824ZM99.7618 35.976C99.7618 35.388 99.9018 34.8513 100.182 34.366C100.471 33.8807 100.868 33.5027 101.372 33.232C101.876 32.952 102.45 32.812 103.094 32.812C103.738 32.812 104.307 32.952 104.802 33.232C105.306 33.5027 105.693 33.8807 105.964 34.366C106.234 34.842 106.37 35.3787 106.37 35.976C106.37 36.5733 106.234 37.1147 105.964 37.6C105.693 38.076 105.306 38.454 104.802 38.734C104.307 39.014 103.733 39.154 103.08 39.154C102.445 39.154 101.876 39.028 101.372 38.776C100.868 38.5147 100.471 38.146 100.182 37.67C99.9018 37.1847 99.7618 36.62 99.7618 35.976ZM101.344 35.99C101.344 36.522 101.507 36.97 101.834 37.334C102.16 37.6887 102.566 37.866 103.052 37.866C103.556 37.866 103.966 37.6887 104.284 37.334C104.61 36.9793 104.774 36.5313 104.774 35.99C104.774 35.4487 104.61 35.0007 104.284 34.646C103.966 34.282 103.556 34.1 103.052 34.1C102.566 34.1 102.16 34.2867 101.834 34.66C101.507 35.024 101.344 35.4673 101.344 35.99ZM113.715 33.078V39H112.301L112.203 37.936C111.998 38.3373 111.695 38.6593 111.293 38.902C110.892 39.1353 110.435 39.252 109.921 39.252C109.38 39.252 108.927 39.0887 108.563 38.762C108.209 38.426 108.027 37.9967 108.017 37.474V33.078H109.585V36.914C109.613 37.5673 109.935 37.8987 110.551 37.908C111.009 37.908 111.387 37.698 111.685 37.278C111.993 36.858 112.147 36.3307 112.147 35.696V33.078H113.715ZM118.021 30.474V33.078H119.561V34.31H118.021V39H116.453V34.31H115.431V33.078H116.453V30.474H118.021ZM131.998 33.078V39.028C131.998 39.5787 131.848 40.0733 131.55 40.512C131.26 40.96 130.85 41.31 130.318 41.562C129.795 41.8233 129.202 41.954 128.54 41.954C127.896 41.954 127.359 41.8513 126.93 41.646C126.5 41.45 126.066 41.1607 125.628 40.778L126.552 39.7C126.85 39.98 127.154 40.1947 127.462 40.344C127.77 40.5027 128.12 40.582 128.512 40.582C129.09 40.582 129.552 40.4373 129.898 40.148C130.243 39.868 130.42 39.4853 130.43 39V38.006C130.224 38.3513 129.916 38.6313 129.506 38.846C129.104 39.0513 128.633 39.154 128.092 39.154C127.55 39.154 127.051 39.0187 126.594 38.748C126.136 38.468 125.772 38.09 125.502 37.614C125.231 37.1287 125.096 36.592 125.096 36.004C125.096 35.4067 125.236 34.8653 125.516 34.38C125.805 33.8853 126.183 33.5027 126.65 33.232C127.126 32.952 127.63 32.812 128.162 32.812C128.656 32.812 129.104 32.9007 129.506 33.078C129.916 33.246 130.224 33.47 130.43 33.75L130.556 33.078H131.998ZM128.554 37.866C129.011 37.866 129.403 37.754 129.73 37.53C130.066 37.306 130.299 37.0027 130.43 36.62V35.332C130.299 34.9587 130.066 34.66 129.73 34.436C129.394 34.212 129.002 34.1 128.554 34.1C128.022 34.1 127.574 34.2773 127.21 34.632C126.855 34.9773 126.678 35.4207 126.678 35.962C126.678 36.3167 126.762 36.6387 126.93 36.928C127.098 37.2173 127.322 37.446 127.602 37.614C127.891 37.782 128.208 37.866 128.554 37.866ZM140.36 33.078V39H138.792V38.146C138.577 38.398 138.288 38.6313 137.924 38.846C137.56 39.0513 137.135 39.154 136.65 39.154C136.081 39.154 135.572 39.0373 135.124 38.804C134.676 38.5613 134.321 38.2067 134.06 37.74C133.799 37.2733 133.668 36.7087 133.668 36.046C133.668 35.402 133.803 34.8373 134.074 34.352C134.345 33.8573 134.704 33.4793 135.152 33.218C135.609 32.9473 136.109 32.812 136.65 32.812C137.611 32.812 138.33 33.1667 138.806 33.876L138.918 33.078H140.36ZM137.084 37.866C137.513 37.866 137.873 37.7587 138.162 37.544C138.461 37.32 138.671 37.0073 138.792 36.606V35.318C138.68 34.954 138.461 34.66 138.134 34.436C137.817 34.212 137.448 34.1 137.028 34.1C136.533 34.1 136.113 34.2773 135.768 34.632C135.423 34.9773 135.25 35.4207 135.25 35.962C135.25 36.3167 135.334 36.6387 135.502 36.928C135.67 37.2173 135.894 37.446 136.174 37.614C136.454 37.782 136.757 37.866 137.084 37.866ZM150.211 32.812C150.79 32.812 151.247 32.9753 151.583 33.302C151.929 33.6287 152.111 34.058 152.129 34.59V39H150.575V35.192C150.557 34.8747 150.487 34.632 150.365 34.464C150.244 34.2867 150.043 34.1887 149.763 34.17C149.278 34.17 148.886 34.3893 148.587 34.828C148.289 35.2573 148.135 35.7613 148.125 36.34V39H146.543V35.192C146.525 34.884 146.45 34.6413 146.319 34.464C146.198 34.2867 145.993 34.1887 145.703 34.17C145.386 34.17 145.106 34.2727 144.863 34.478C144.621 34.6833 144.429 34.954 144.289 35.29C144.159 35.626 144.093 35.976 144.093 36.34V39H142.525V33.078H143.939L144.065 34.114C144.289 33.694 144.593 33.372 144.975 33.148C145.358 32.924 145.797 32.812 146.291 32.812C146.767 32.812 147.164 32.9193 147.481 33.134C147.808 33.3393 148.023 33.638 148.125 34.03C148.368 33.6473 148.676 33.3487 149.049 33.134C149.423 32.9193 149.81 32.812 150.211 32.812ZM157.139 37.81C157.578 37.81 158.021 37.656 158.469 37.348L159.183 38.51C158.866 38.706 158.525 38.8647 158.161 38.986C157.797 39.098 157.447 39.154 157.111 39.154C156.43 39.154 155.837 39.0187 155.333 38.748C154.838 38.4773 154.456 38.104 154.185 37.628C153.924 37.152 153.793 36.606 153.793 35.99C153.793 35.4113 153.942 34.8793 154.241 34.394C154.54 33.9087 154.946 33.526 155.459 33.246C155.972 32.9567 156.532 32.812 157.139 32.812C157.942 32.812 158.609 33.05 159.141 33.526C159.673 33.9927 160.028 34.6553 160.205 35.514L155.641 37.054C155.8 37.2967 156.01 37.4833 156.271 37.614C156.532 37.7447 156.822 37.81 157.139 37.81ZM157.013 34.044C156.518 34.044 156.112 34.2167 155.795 34.562C155.487 34.9073 155.333 35.3553 155.333 35.906C155.333 36.0087 155.338 36.088 155.347 36.144L158.455 35.038C158.334 34.7487 158.156 34.5107 157.923 34.324C157.69 34.1373 157.386 34.044 157.013 34.044ZM163.526 39.126C163.069 39.126 162.635 39.0467 162.224 38.888C161.823 38.72 161.491 38.4867 161.23 38.188L161.888 37.306C162.383 37.7913 162.887 38.034 163.4 38.034C163.68 38.034 163.909 37.9827 164.086 37.88C164.273 37.768 164.366 37.6047 164.366 37.39C164.366 37.166 164.273 36.998 164.086 36.886C163.899 36.774 163.689 36.6853 163.456 36.62C163.232 36.5453 163.087 36.4987 163.022 36.48C162.509 36.3213 162.126 36.0927 161.874 35.794C161.622 35.486 161.496 35.1267 161.496 34.716C161.496 34.3893 161.575 34.086 161.734 33.806C161.902 33.5167 162.149 33.2833 162.476 33.106C162.812 32.9287 163.218 32.84 163.694 32.84C164.142 32.84 164.529 32.8913 164.856 32.994C165.192 33.0967 165.505 33.26 165.794 33.484L165.192 34.422C165.024 34.2633 164.819 34.1373 164.576 34.044C164.343 33.9507 164.128 33.904 163.932 33.904C163.689 33.904 163.489 33.96 163.33 34.072C163.171 34.184 163.092 34.3287 163.092 34.506C163.083 34.7207 163.162 34.884 163.33 34.996C163.498 35.0987 163.769 35.2107 164.142 35.332C164.301 35.3787 164.403 35.4113 164.45 35.43C164.917 35.5793 165.281 35.7893 165.542 36.06C165.803 36.3213 165.934 36.6667 165.934 37.096C165.934 37.6747 165.724 38.16 165.304 38.552C164.893 38.9347 164.301 39.126 163.526 39.126Z" fill="#14D684"/>
</g>
<defs>
<filter id="filter0_d_229_62" x="52.584" y="5.72803" width="175.015" height="24.5601" filterUnits="userSpaceOnUse" color-interpolation-filters="sRGB">
<feFlood flood-opacity="0" result="BackgroundImageFix"/>
<feColorMatrix in="SourceAlpha" type="matrix" values="0 0 0 0 0 0 0 0 0 0 0 0 0 0 0 0 0 0 127 0" result="hardAlpha"/>
<feOffset dy="4"/>
<feGaussianBlur stdDeviation="2"/>
<feComposite in2="hardAlpha" operator="out"/>
<feColorMatrix type="matrix" values="0 0 0 0 0 0 0 0 0 0 0 0 0 0 0 0 0 0 0.25 0"/>
<feBlend mode="normal" in2="BackgroundImageFix" result="effect1_dropShadow_229_62"/>
<feBlend mode="normal" in="SourceGraphic" in2="effect1_dropShadow_229_62" result="shape"/>
</filter>
<filter id="filter1_d_229_62" x="0" y="5" width="43" height="43" filterUnits="userSpaceOnUse" color-interpolation-filters="sRGB">
<feFlood flood-opacity="0" result="BackgroundImageFix"/>
<feColorMatrix in="SourceAlpha" type="matrix" values="0 0 0 0 0 0 0 0 0 0 0 0 0 0 0 0 0 0 127 0" result="hardAlpha"/>
<feOffset dy="4"/>
<feGaussianBlur stdDeviation="2"/>
<feComposite in2="hardAlpha" operator="out"/>
<feColorMatrix type="matrix" values="0 0 0 0 0 0 0 0 0 0 0 0 0 0 0 0 0 0 0.25 0"/>
<feBlend mode="normal" in2="BackgroundImageFix" result="effect1_dropShadow_229_62"/>
<feBlend mode="normal" in="SourceGraphic" in2="effect1_dropShadow_229_62" result="shape"/>
</filter>
<filter id="filter2_d_229_62" x="51.3779" y="28.0801" width="118.556" height="21.874" filterUnits="userSpaceOnUse" color-interpolation-filters="sRGB">
<feFlood flood-opacity="0" result="BackgroundImageFix"/>
<feColorMatrix in="SourceAlpha" type="matrix" values="0 0 0 0 0 0 0 0 0 0 0 0 0 0 0 0 0 0 127 0" result="hardAlpha"/>
<feOffset dy="4"/>
<feGaussianBlur stdDeviation="2"/>
<feComposite in2="hardAlpha" operator="out"/>
<feColorMatrix type="matrix" values="0 0 0 0 0 0 0 0 0 0 0 0 0 0 0 0 0 0 0.25 0"/>
<feBlend mode="normal" in2="BackgroundImageFix" result="effect1_dropShadow_229_62"/>
<feBlend mode="normal" in="SourceGraphic" in2="effect1_dropShadow_229_62" result="shape"/>
</filter>
</defs>
</svg>
