<svg width="20" height="18" viewBox="0 0 20 18" fill="none" xmlns="http://www.w3.org/2000/svg">
<path d="M7.4614 17.2048C6.59653 17.2048 5.70633 17.1347 4.81079 16.9944C3.23349 16.7469 1.63681 15.9218 1.185 15.6748L0 15.0269L1.28296 14.605C2.68539 14.1439 3.53851 13.8578 4.59457 13.4098C3.53714 12.8977 2.72217 11.9765 2.32986 10.7857L2.0314 9.87965L2.27615 9.91703C2.04407 9.68311 1.86081 9.44569 1.71875 9.22977C1.21353 8.46241 0.946045 7.52476 1.00296 6.72123L1.05911 5.93037L1.53259 6.11378C1.33286 5.73658 1.18851 5.33375 1.10367 4.91154C0.896912 3.88187 1.06995 2.78797 1.59103 1.8314L2.00348 1.07426L2.55508 1.73679C4.29962 3.83244 6.50925 5.07557 9.13177 5.43949C9.02466 4.70112 9.10492 3.98853 9.37057 3.3498C9.67987 2.60609 10.2301 1.97544 10.9613 1.52592C11.7734 1.0268 12.7582 0.784951 13.7343 0.844918C14.7699 0.908547 15.7101 1.29658 16.4569 1.96781C16.8216 1.87305 17.0903 1.77189 17.4535 1.63517C17.672 1.55293 17.9198 1.45954 18.2298 1.35273L19.3724 0.959053L18.6273 3.08704C18.6765 3.08292 18.7271 3.07941 18.7801 3.07713L20.0002 3.02189L19.279 4.00745C19.2377 4.06391 19.2271 4.07993 19.2125 4.10206C19.1544 4.18964 19.082 4.29859 18.0922 5.62031C17.8444 5.95127 17.7206 6.38233 17.7437 6.8343C17.8314 8.55183 17.6207 10.1058 17.117 11.4528C16.6406 12.7272 15.9024 13.8207 14.9231 14.7028C13.7112 15.7941 12.166 16.5413 10.33 16.9234C9.42947 17.1108 8.46237 17.2048 7.4614 17.2048Z" fill="white"/>
</svg>
